PathFileType	4	(X/Y/Z)	/Users/visionmauri/4_2_2_f_1_Sports2D/4_2_2_f_1_Sports2D_px_person00.trc
DataRate	CameraRate	NumFrames	NumMarkers	Units	OrigDataRate	OrigDataStartFrame	OrigNumFrames
30.0	30.0	8	22	m	30.0	243	325
Frame#	Time	Hip			RHip			RKnee			RAnkle			RBigToe			RSmallToe			RHeel			LHip			LKnee			LAnkle			LBigToe			LSmallToe			LHeel			Neck			Head			Nose			RShoulder			RElbow			RWrist			LShoulder			LElbow			LWrist			
		X1	Y1	Z1	X2	Y2	Z2	X3	Y3	Z3	X4	Y4	Z4	X5	Y5	Z5	X6	Y6	Z6	X7	Y7	Z7	X8	Y8	Z8	X9	Y9	Z9	X10	Y10	Z10	X11	Y11	Z11	X12	Y12	Z12	X13	Y13	Z13	X14	Y14	Z14	X15	Y15	Z15	X16	Y16	Z16	X17	Y17	Z17	X18	Y18	Z18	X19	Y19	Z19	X20	Y20	Z20	X21	Y21	Z21	X22	Y22	Z22
243	8.125	617.0682788414571	896.1303536318743	0.0	544.2782354883276	905.10852918113	0.0	511.8186215849991	1122.318381582182	0.0	503.01002432351015	1342.40146447897	0.0	492.0387968898256	1450.0723005603008	0.0	453.70124923385873	1438.7991343857177	0.0	524.8703442039537	1365.2426759235182	0.0	688.3461843791913	915.4724215677549	0.0	679.4372886453602	1183.166970991142	0.0	666.794468063754	1469.597780461967	0.0	686.9544585878388	1583.979266531322	0.0	725.3191106812521	1573.338463366067	0.0	645.5120603386129	1511.1721782796617	0.0	632.5811662979511	504.7852335157451	0.0	620.4002254583653	349.581015602064	0.0	600.8118593284374	483.0846471308081	0.0	507.2340113618367	550.7378674936506	0.0	417.4268798634703	718.6477097179462	0.0	320.3205557342826	861.2636669269859	0.0	768.9021355698166	544.1999343685557	0.0	853.364469860293	711.8992224635805	0.0	838.7230998100871	852.8437578620402	0.0
244	8.15843621399177	618.1862454297662	893.1378027751422	0.0	543.8672003499074	900.1101183100841	0.0	508.90398815931064	1119.9688830988198	0.0	503.013645856193	1341.4873047458707	0.0	491.6618178752024	1450.9898530932817	0.0	454.2830980428435	1439.8062568499986	0.0	525.490013877361	1361.3446677387096	0.0	689.7711669320571	914.3164427853064	0.0	679.8379450605164	1181.9875643080622	0.0	666.2894024468206	1469.3454931663123	0.0	687.1332901739988	1582.4983404061022	0.0	725.1078773110617	1572.4562476848762	0.0	644.5614118228287	1510.7473377744159	0.0	639.0434914066622	500.72864541987127	0.0	627.3839539401727	345.17169756737275	0.0	603.2273717641771	479.7714948003264	0.0	513.0187575030598	545.5443436643794	0.0	420.8080839875484	716.2829976823149	0.0	323.76753045804816	860.2813046145641	0.0	774.4704489927966	541.7303249063232	0.0	857.406497214343	714.0775192231257	0.0	844.631921429282	853.753312153303	0.0
245	8.191872427983538	618.5190724712911	890.7784434402853	0.0	544.2214824386634	896.6489762855861	0.0	506.69537132615795	1116.9686703463376	0.0	503.46396966798835	1339.7249344042682	0.0	491.73591984853357	1450.989403123221	0.0	455.67687095871355	1439.9901151380393	0.0	527.2129942420618	1358.692226478033	0.0	690.5745688502684	913.8141080288973	0.0	679.3957812134281	1180.2738703073721	0.0	665.9009929870587	1468.8925368573389	0.0	687.021710553262	1579.440223329351	0.0	725.7475668638525	1569.783102844301	0.0	643.6230134963087	1510.3569028268514	0.0	644.9366674817852	496.69399910360073	0.0	633.0282830382052	340.23269337612305	0.0	604.5764957386136	475.39721291096674	0.0	519.231457583149	540.5540634461305	0.0	424.06290795126324	715.0286056164671	0.0	328.1840349756722	858.5335767730295	0.0	779.3477963464226	538.9009153866716	0.0	859.2071713648019	717.6076559241998	0.0	849.3513449596315	854.8722223762859	0.0
246	8.225308641975309	618.7608314653077	889.3801263492467	0.0	545.1276170621966	895.0175250792033	0.0	504.8435049907809	1115.0787143529424	0.0	505.07260606863196	1336.7486504896713	0.0	492.1950149676605	1451.0920385232619	0.0	456.9091691997407	1439.7658078703676	0.0	530.2129599372761	1356.0713853634716	0.0	691.6530451556953	913.5805218110189	0.0	678.6413513073306	1181.2640218311044	0.0	666.4201755752164	1468.2240836029832	0.0	686.0972888328798	1576.5291600358196	0.0	726.8870296197056	1566.9891286564912	0.0	643.4810321180026	1509.7371568066828	0.0	651.6987642515446	493.39075263627035	0.0	636.3195114250617	334.6898299571966	0.0	604.799061212849	470.58808724523556	0.0	525.7093765095728	536.978231865012	0.0	428.40527576078165	713.5333212489932	0.0	331.74191067776763	856.9121315628863	0.0	785.361140208036	537.6586648696153	0.0	860.798960506955	723.8039142615686	0.0	852.6904274483388	856.2507857256659	0.0
247	8.258744855967079	620.2237746726489	888.3906387518035	0.0	545.8869233456171	894.3560765683998	0.0	502.1015003182512	1115.5810776155784	0.0	507.44513864559235	1334.5763783554353	0.0	492.1987768948324	1454.0160989535464	0.0	457.71116784009587	1441.0122954205403	0.0	533.0098781440678	1354.1834445598745	0.0	693.8768961280396	912.2020174517921	0.0	678.0914033304673	1183.3592270090357	0.0	667.1832419443975	1467.9999034849034	0.0	684.5220518348824	1575.1514865152465	0.0	727.6470455872047	1565.8201158903466	0.0	643.6188781577672	1509.489763337039	0.0	658.4979412319313	491.6480018748272	0.0	638.7687205631146	329.9990113531302	0.0	606.0385665408623	467.52332550209184	0.0	531.0649460117351	534.9927081019339	0.0	433.6176788176124	710.8687792783523	0.0	333.390879348042	856.7505721456293	0.0	792.5082249158986	538.2164687780406	0.0	863.3873829272701	731.0581617212814	0.0	855.0964174513637	857.96940525313	0.0
248	8.292181069958847	622.1698142347082	888.3561847459348	0.0	546.4585571405869	894.4018511894731	0.0	497.957257722204	1117.843905667286	0.0	508.9743814570328	1335.8969175447592	0.0	490.94049593710537	1459.39753629837	0.0	457.82352571001724	1443.564489574435	0.0	534.2944246095971	1354.1149951188816	0.0	696.0919309615286	910.6599681353622	0.0	678.0730956748764	1184.8598559224827	0.0	667.161419335112	1468.7990307031464	0.0	683.4321125070146	1575.1970531000602	0.0	727.60623063777	1566.243840266622	0.0	643.6402569268006	1510.2989540585295	0.0	663.2342029576686	491.18833878288604	0.0	642.1766523277995	326.4096598720383	0.0	608.2098159745364	465.04707546863784	0.0	534.2653416994084	533.1642760598963	0.0	438.15451912334095	708.496298060366	0.0	333.79875020800745	857.0776907724074	0.0	798.0305602190673	539.0285989667236	0.0	865.7968720266126	736.6999824756475	0.0	856.8996984931183	859.7635566095236	0.0
249	8.325617283950617	622.8117670930268	889.5162115949303	0.0	546.8933792768318	894.6611038961343	0.0	493.331219827223	1120.6074973200016	0.0	508.5686465451867	1341.2994516938375	0.0	488.877997647609	1465.2952968220106	0.0	456.99996082168013	1446.687692646259	0.0	534.3441638712413	1356.7977292554153	0.0	696.858669892928	910.6656198064809	0.0	678.516803876342	1186.3702843438216	0.0	666.413040821096	1470.0190916303707	0.0	683.9392411714979	1576.3634787678754	0.0	727.4631019187055	1567.2079955950232	0.0	643.8565492707336	1511.3878842062634	0.0	665.6471173954795	491.37141973204456	0.0	646.2906264005389	322.5512486020099	0.0	608.8462873554048	460.9185378712132	0.0	535.7754407313749	530.5150827918008	0.0	441.03238038571845	707.464608715301	0.0	333.8103485107499	856.3020909848435	0.0	800.1422629081295	538.8075593335482	0.0	866.5455034134899	739.7419221178976	0.0	857.9930540805315	861.9456334610488	0.0
250	8.359053497942387	622.6711290347508	889.7678239776828	0.0	546.6527779474384	893.8380466238824	0.0	489.57786404373485	1124.1526118418526	0.0	506.46275785889145	1349.3261609481006	0.0	486.20349530718346	1473.978529785353	0.0	454.55549044199427	1453.349452160248	0.0	534.0696373164704	1364.416582332836	0.0	696.4982393935641	911.344717104206	0.0	679.3972228393335	1187.5641838053532	0.0	665.7585937761194	1470.6380972151737	0.0	685.3877913896922	1578.10213761345	0.0	727.957791841795	1567.7160998785148	0.0	644.3288174024387	1511.5030725514043	0.0	667.202357920628	491.5670417635094	0.0	649.5874518069049	318.81840151241477	0.0	607.724377466462	457.13285901065063	0.0	537.1452444161536	527.9578793109426	0.0	442.7042372662338	706.9820864316569	0.0	333.79099925654293	854.5302774028488	0.0	800.2339151685786	537.6566098349203	0.0	865.4133368984787	740.7371128606111	0.0	858.6202972622355	865.7025842861832	0.0
